<svg width="32" height="32" viewBox="0 0 32 32" fill="none" xmlns="http://www.w3.org/2000/svg">
<path d="M27.6844 16.6792C28.2094 15.9854 28.5 15.1354 28.5 14.2511C28.5 12.8479 27.7156 11.5198 26.4531 10.7792C26.1281 10.5886 25.7581 10.4882 25.3813 10.4886H17.8875L18.075 6.64795C18.1188 5.71982 17.7906 4.83857 17.1531 4.1667C16.8403 3.83554 16.4628 3.57205 16.0441 3.39253C15.6254 3.213 15.1743 3.12125 14.7188 3.12295C13.0938 3.12295 11.6562 4.2167 11.225 5.78232L8.54062 15.5011H8.53125V28.8761H23.2906C23.5781 28.8761 23.8594 28.8198 24.1187 28.7073C25.6062 28.0729 26.5656 26.6198 26.5656 25.0073C26.5656 24.6136 26.5094 24.2261 26.3969 23.8511C26.9219 23.1573 27.2125 22.3073 27.2125 21.4229C27.2125 21.0292 27.1562 20.6417 27.0438 20.2667C27.5688 19.5729 27.8594 18.7229 27.8594 17.8386C27.8531 17.4448 27.7969 17.0542 27.6844 16.6792ZM3.5 16.5011V27.8761C3.5 28.4292 3.94687 28.8761 4.5 28.8761H6.53125V15.5011H4.5C3.94687 15.5011 3.5 15.9479 3.5 16.5011Z" fill="#0072EF"/>
</svg>
