<svg width="25" height="25" viewBox="0 0 25 25" fill="none" xmlns="http://www.w3.org/2000/svg">
<path d="M17.4194 14.6459C17.1533 14.5092 15.8276 13.8597 15.581 13.7719C15.3344 13.6791 15.1538 13.6351 14.9755 13.9086C14.7949 14.1796 14.2822 14.7826 14.1211 14.9657C13.9648 15.1464 13.8061 15.1683 13.54 15.0341C11.958 14.243 10.9204 13.6229 9.87791 11.8334C9.60203 11.3573 10.1538 11.3915 10.6689 10.3637C10.7568 10.183 10.7129 10.0292 10.6445 9.89248C10.5761 9.75576 10.039 8.43252 9.81443 7.89297C9.59715 7.36807 9.37254 7.44131 9.20897 7.43155C9.05272 7.42178 8.87449 7.42178 8.69383 7.42178C8.51317 7.42178 8.22264 7.49014 7.97606 7.75625C7.72948 8.02725 7.03368 8.6791 7.03368 10.0023C7.03368 11.3256 7.99803 12.6073 8.12987 12.788C8.26659 12.9686 10.0268 15.6835 12.7295 16.8529C14.4384 17.5902 15.1074 17.6537 15.9619 17.5267C16.4819 17.4486 17.5537 16.8773 17.7758 16.245C17.998 15.6151 17.998 15.0756 17.9321 14.9633C17.8662 14.8436 17.6855 14.7753 17.4194 14.6459Z" fill="white"/>
<path d="M22.5888 8.26169C22.0371 6.95066 21.246 5.77391 20.2377 4.76317C19.2294 3.75487 18.0527 2.96142 16.7392 2.41211C15.3965 1.84814 13.9707 1.5625 12.501 1.5625H12.4521C10.9726 1.56982 9.53955 1.86279 8.1919 2.43896C6.89064 2.9956 5.72365 3.78661 4.72512 4.79491C3.72659 5.8032 2.9429 6.97507 2.40091 8.28122C1.83939 9.63375 1.55619 11.0717 1.56351 12.5512C1.57084 14.2455 1.97611 15.9277 2.73538 17.4316V21.1425C2.73538 21.7626 3.23831 22.2655 3.85842 22.2655H7.57179C9.07568 23.0248 10.7578 23.4301 12.4521 23.4374H12.5034C13.9658 23.4374 15.3842 23.1542 16.7197 22.6C18.0258 22.0556 19.2001 21.2743 20.206 20.2758C21.2143 19.2773 22.0078 18.1103 22.562 16.809C23.1381 15.4614 23.4311 14.0283 23.4384 12.5488C23.4457 11.062 23.1577 9.6191 22.5888 8.26169ZM18.8999 18.955C17.1884 20.6493 14.9179 21.5819 12.501 21.5819H12.4595C10.9873 21.5746 9.5249 21.2084 8.2334 20.5199L8.02833 20.4101H4.59084V16.9726L4.48098 16.7675C3.79251 15.476 3.4263 14.0136 3.41897 12.5415C3.40921 10.1074 4.33938 7.82224 6.04591 6.10105C7.75001 4.37987 10.0278 3.42773 12.4619 3.41796H12.5034C13.7241 3.41796 14.9082 3.65478 16.0239 4.12352C17.1128 4.58006 18.0893 5.2368 18.9292 6.07664C19.7666 6.91404 20.4257 7.89304 20.8823 8.9819C21.3559 10.1098 21.5927 11.3061 21.5878 12.5415C21.5732 14.9731 20.6186 17.2509 18.8999 18.955Z" fill="white"/>
</svg>
