<svg width="24" height="24" viewBox="0 0 24 24" fill="none" xmlns="http://www.w3.org/2000/svg">
<path d="M16.7228 14.0602C16.4673 13.9289 15.1946 13.3055 14.9579 13.2211C14.7212 13.132 14.5478 13.0898 14.3767 13.3523C14.2032 13.6125 13.711 14.1914 13.5563 14.3672C13.4063 14.5406 13.254 14.5617 12.9985 14.4328C11.4798 13.6734 10.4837 13.0781 9.48291 11.3602C9.21807 10.9031 9.74775 10.9359 10.2423 9.94922C10.3267 9.77578 10.2845 9.62813 10.2188 9.49688C10.1532 9.36563 9.6376 8.09531 9.42197 7.57734C9.21338 7.07344 8.99775 7.14375 8.84072 7.13437C8.69072 7.125 8.51963 7.125 8.34619 7.125C8.17275 7.125 7.89385 7.19063 7.65713 7.44609C7.42041 7.70625 6.75244 8.33203 6.75244 9.60235C6.75244 10.8727 7.67822 12.1031 7.80478 12.2766C7.93603 12.45 9.62588 15.0563 12.2204 16.1789C13.861 16.8867 14.5032 16.9477 15.3235 16.8258C15.8228 16.7508 16.8517 16.2024 17.0649 15.5953C17.2782 14.9906 17.2782 14.4727 17.2149 14.3649C17.1517 14.25 16.9782 14.1844 16.7228 14.0602Z" fill="#262626"/>
<path d="M21.685 7.93125C21.1553 6.67266 20.3959 5.54297 19.428 4.57266C18.46 3.60469 17.3303 2.84297 16.0694 2.31563C14.7803 1.77422 13.4116 1.5 12.0006 1.5H11.9537C10.5334 1.50703 9.15765 1.78828 7.8639 2.34141C6.61468 2.87578 5.49437 3.63516 4.53578 4.60312C3.57718 5.57109 2.82484 6.69609 2.30453 7.95C1.76547 9.24844 1.49359 10.6289 1.50062 12.0492C1.50765 13.6758 1.89671 15.2906 2.62562 16.7344V20.2969C2.62562 20.8922 3.10843 21.375 3.70375 21.375H7.26859C8.71234 22.1039 10.3272 22.493 11.9537 22.5H12.003C13.4069 22.5 14.7686 22.2281 16.0506 21.6961C17.3045 21.1734 18.4319 20.4234 19.3975 19.4648C20.3655 18.5063 21.1272 17.3859 21.6592 16.1367C22.2123 14.843 22.4936 13.4672 22.5006 12.0469C22.5077 10.6195 22.2311 9.23438 21.685 7.93125ZM18.1436 18.1969C16.5006 19.8234 14.3209 20.7188 12.0006 20.7188H11.9608C10.5475 20.7117 9.14359 20.3602 7.90375 19.6992L7.70687 19.5938H4.40687V16.2938L4.3014 16.0969C3.64047 14.857 3.2889 13.4531 3.28187 12.0398C3.2725 9.70312 4.16547 7.50937 5.80375 5.85703C7.43968 4.20469 9.6264 3.29062 11.9631 3.28125H12.003C13.1748 3.28125 14.3116 3.50859 15.3827 3.95859C16.428 4.39687 17.3655 5.02734 18.1717 5.83359C18.9756 6.6375 19.6084 7.57734 20.0467 8.62266C20.5014 9.70547 20.7287 10.8539 20.7241 12.0398C20.71 14.3742 19.7936 16.5609 18.1436 18.1969Z" fill="#262626"/>
</svg>
