<svg width="112" height="112" viewBox="0 0 112 112" fill="none" xmlns="http://www.w3.org/2000/svg">
<g filter="url(#filter0_d_0_43)">
<circle cx="56" cy="46" r="26" fill="#00B140"/>
</g>
<path d="M61.0506 48.3357C60.7901 48.2018 59.4925 47.5662 59.2511 47.4802C59.0098 47.3893 58.8329 47.3463 58.6585 47.614C58.4816 47.8792 57.9798 48.4695 57.8221 48.6487C57.6691 48.8256 57.5138 48.8471 57.2533 48.7156C55.7048 47.9414 54.6892 47.3344 53.6688 45.5827C53.3987 45.1167 53.9388 45.1502 54.443 44.1441C54.5291 43.9673 54.4861 43.8167 54.4191 43.6829C54.3522 43.5491 53.8265 42.2539 53.6066 41.7257C53.394 41.212 53.1741 41.2836 53.014 41.2741C52.8611 41.2645 52.6866 41.2645 52.5098 41.2645C52.3329 41.2645 52.0486 41.3314 51.8072 41.5919C51.5658 41.8572 50.8848 42.4952 50.8848 43.7904C50.8848 45.0857 51.8287 46.3403 51.9577 46.5171C52.0916 46.6939 53.8145 49.3513 56.46 50.496C58.1327 51.2177 58.7875 51.2798 59.6239 51.1555C60.1329 51.0791 61.182 50.5199 61.3995 49.9009C61.6169 49.2844 61.6169 48.7563 61.5524 48.6463C61.4879 48.5292 61.3111 48.4623 61.0506 48.3357Z" fill="white"/>
<path d="M66.1103 42.0867C65.5702 40.8034 64.796 39.6515 63.809 38.6622C62.8221 37.6753 61.6702 36.8986 60.3846 36.3609C59.0702 35.8089 57.6747 35.5293 56.236 35.5293H56.1883C54.7401 35.5365 53.3373 35.8232 52.0182 36.3872C50.7445 36.9321 49.6022 37.7063 48.6248 38.6933C47.6474 39.6802 46.8803 40.8273 46.3498 42.1058C45.8002 43.4297 45.523 44.8372 45.5302 46.2854C45.5373 47.9438 45.934 49.5903 46.6772 51.0624V54.6947C46.6772 55.3017 47.1695 55.794 47.7765 55.794H51.4112C52.8833 56.5372 54.5298 56.9339 56.1883 56.9411H56.2384C57.6699 56.9411 59.0583 56.6639 60.3655 56.1214C61.644 55.5885 62.7934 54.8238 63.778 53.8464C64.7649 52.869 65.5416 51.7267 66.084 50.453C66.648 49.1339 66.9348 47.7311 66.9419 46.283C66.9491 44.8276 66.6671 43.4153 66.1103 42.0867ZM62.4995 52.5536C60.8243 54.212 58.6019 55.1249 56.236 55.1249H56.1954C54.7544 55.1177 53.323 54.7593 52.0588 54.0854L51.8581 53.9778H48.4934V50.6131L48.3859 50.4124C47.712 49.1482 47.3535 47.7168 47.3463 46.2758C47.3368 43.8933 48.2473 41.6565 49.9177 39.9718C51.5857 38.287 53.8153 37.355 56.1978 37.3455H56.2384C57.4333 37.3455 58.5923 37.5773 59.6844 38.0361C60.7502 38.483 61.7061 39.1258 62.5281 39.9479C63.3478 40.7675 63.993 41.7258 64.4399 42.7916C64.9035 43.8957 65.1353 45.0666 65.1305 46.2758C65.1162 48.656 64.1818 50.8856 62.4995 52.5536Z" fill="white"/>
<defs>
<filter id="filter0_d_0_43" x="0" y="0" width="112" height="112" filterUnits="userSpaceOnUse" color-interpolation-filters="sRGB">
<feFlood flood-opacity="0" result="BackgroundImageFix"/>
<feColorMatrix in="SourceAlpha" type="matrix" values="0 0 0 0 0 0 0 0 0 0 0 0 0 0 0 0 0 0 127 0" result="hardAlpha"/>
<feOffset dy="10"/>
<feGaussianBlur stdDeviation="15"/>
<feColorMatrix type="matrix" values="0 0 0 0 0 0 0 0 0 0.447059 0 0 0 0 0.937255 0 0 0 0.2 0"/>
<feBlend mode="normal" in2="BackgroundImageFix" result="effect1_dropShadow_0_43"/>
<feBlend mode="normal" in="SourceGraphic" in2="effect1_dropShadow_0_43" result="shape"/>
</filter>
</defs>
</svg>
