<svg width="153" height="153" viewBox="0 0 153 153" fill="none" xmlns="http://www.w3.org/2000/svg">
<path d="M76.5 0C66.4962 0 58.8462 7.65 58.8462 17.6538V52.9615C58.8462 62.9654 66.4962 70.6154 76.5 70.6154H111.808L135.346 94.1538V70.6154C145.35 70.6154 153 62.9654 153 52.9615V17.6538C153 7.65 145.35 0 135.346 0H76.5ZM101.145 17.6538H111.255L121.188 52.9615H112.361L109.966 44.1346H101.139L98.938 52.9615H91.2115L101.145 17.6538ZM105.923 23.5385C105.335 25.8923 104.676 28.764 104.081 30.5294L102.433 38.25H109.419L107.759 30.5235C106.588 28.764 105.923 25.8923 105.923 23.5385ZM17.6538 58.8462C7.65 58.8462 0 66.4962 0 76.5V111.808C0 121.812 7.65 129.462 17.6538 129.462V153L41.1923 129.462H76.5C86.5038 129.462 94.1538 121.812 94.1538 111.808V76.5H76.5C65.3192 76.5 56.457 68.85 53.5147 58.8462H17.6538ZM44.6878 75.9468C54.6916 75.9468 59.3993 84.1853 59.3993 93.6007C59.3993 101.839 56.5688 107.065 51.8611 109.419C54.215 110.595 57.0043 111.219 59.9466 111.808L57.7457 117.692C53.6265 116.515 49.3543 114.679 45.235 112.908C44.6466 112.32 43.6168 112.361 43.0283 112.361C35.9668 111.772 29.4231 105.923 29.4231 94.1538C29.4231 84.15 35.2724 75.9468 44.6878 75.9468ZM44.6878 82.3846C39.9801 82.3846 37.6968 87.6808 37.6968 94.1538C37.6968 101.215 39.9801 105.923 44.6878 105.923C49.3955 105.923 51.8552 100.627 51.8552 94.1538C51.8552 87.6808 49.3955 82.3846 44.6878 82.3846Z" fill="#9C47F2"/>
</svg>
